HIERARCHY
ROOT Hips
{
	OFFSET 0.000000 0.000000 0.000000 
	CHANNELS 6 Xposition Yposition Zposition Zrotation Yrotation Xrotation
	JOINT LeftUpLeg
	{
		OFFSET 1.363060 -1.794630 0.839290 
		CHANNELS 3 Zrotation Yrotation Xrotation
		JOINT LeftLeg
		{
			OFFSET 2.448110 -6.726130 0.000000 
			CHANNELS 3 Zrotation Yrotation Xrotation
			JOINT LeftFoot
			{
				OFFSET 2.562200 -7.039590 0.000000 
				CHANNELS 3 Zrotation Yrotation Xrotation
				JOINT LeftToeBase
				{
					OFFSET 0.157640 -0.433110 2.322550 
					CHANNELS 3 Zrotation Yrotation Xrotation
					End Site
					{
						OFFSET 0.000000 0.000000 0.000000 
					}
				}
			}
		}
	}
	JOINT RightUpLeg
	{
		OFFSET -1.305520 -1.794630 0.839290 
		CHANNELS 3 Zrotation Yrotation Xrotation
		JOINT RightLeg
		{
			OFFSET -2.542530 -6.985550 0.000000 
			CHANNELS 3 Zrotation Yrotation Xrotation
			JOINT RightFoot
			{
				OFFSET -2.568260 -7.056230 0.000000 
				CHANNELS 3 Zrotation Yrotation Xrotation
				JOINT RightToeBase
				{
					OFFSET -0.164730 -0.452590 2.363150 
					CHANNELS 3 Zrotation Yrotation Xrotation
					End Site
					{
						OFFSET 0.000000 0.000000 0.000000 
					}
				}
			}
		}
	}
	JOINT Spine
	{
		OFFSET 0.028270 2.035590 -0.193380 
		CHANNELS 3 Zrotation Yrotation Xrotation
		JOINT Spine1
		{
			OFFSET 0.056720 2.048850 -0.042750 
			CHANNELS 3 Zrotation Yrotation Xrotation
			JOINT Neck1
			{
				OFFSET -0.054170 1.746240 0.172020 
				CHANNELS 3 Zrotation Yrotation Xrotation
				JOINT Head
				{
					OFFSET 0.104070 1.761360 -0.123970 
					CHANNELS 3 Zrotation Yrotation Xrotation
					End Site
					{
						OFFSET 0.000000 0.000000 0.000000 
					}
				}
			}
			JOINT LeftArm
			{
				OFFSET 3.362410 1.200890 -0.311210 
				CHANNELS 3 Zrotation Yrotation Xrotation
				JOINT LeftForeArm
				{
					OFFSET 4.983000 -0.000000 -0.000000 
					CHANNELS 3 Zrotation Yrotation Xrotation
					JOINT LeftHand
					{
						OFFSET 3.483560 -0.000000 -0.000000 
						CHANNELS 3 Zrotation Yrotation Xrotation
						JOINT LeftHandIndex1
						{
							OFFSET 0.715260 -0.000000 -0.000000 
							CHANNELS 3 Zrotation Yrotation Xrotation
							End Site
							{
								OFFSET 0.000000 0.000000 0.000000 
							}
						}
					}
				}
			}
			JOINT RightArm
			{
				OFFSET -3.136600 1.374050 -0.404650 
				CHANNELS 3 Zrotation Yrotation Xrotation
				JOINT RightForeArm
				{
					OFFSET -5.241900 -0.000000 -0.000000 
					CHANNELS 3 Zrotation Yrotation Xrotation
					JOINT RightHand
					{
						OFFSET -3.444170 -0.000000 -0.000000 
						CHANNELS 3 Zrotation Yrotation Xrotation
						JOINT RightHandIndex1
						{
							OFFSET -0.622530 -0.000000 -0.000000 
							CHANNELS 3 Zrotation Yrotation Xrotation
							End Site
							{
								OFFSET 0.000000 0.000000 0.000000 
							}
						}
					}
				}
			}
		}
	}
}
MOTION
Frames: 13
Frame Time: 0.041667
10.692839 16.916365 32.879546 149.927610 -87.088341 -132.349929 -0.268156 -7.833477 -9.019674 -4.981761 1.021029 0.516741 -8.366319 28.372067 26.065300 1.436400 -7.577400 -21.437600 -6.271466 25.187520 -9.101206 1.676123 -7.377553 12.608123 16.262798 -36.759444 11.063810 -2.141300 9.154400 -26.279500 0.986602 -0.708803 -5.041374 -0.799951 -0.104221 1.744422 8.046488 4.264270 9.941678 0.633500 2.855600 12.753600 -79.710870 13.479363 14.478729 12.532147 -18.333377 -3.592426 -3.717714 -4.022167 -28.365785 -7.125000 0.000000 0.000000 80.138852 -14.019165 -4.656409 -10.682913 13.524694 -2.298875 0.600487 3.519899 -5.991740 7.125000 0.000000 0.000000 
10.689105 16.915082 32.877796 150.679721 -86.973614 -133.171253 -0.338023 -7.729052 -8.936018 -4.984559 1.012398 0.558710 -8.361040 28.298837 25.978927 1.403800 -7.494700 -21.189400 -6.273038 25.103388 -9.169663 1.662015 -7.427833 12.693062 16.144079 -36.623860 11.272155 -2.157000 9.185700 -26.378000 0.981813 -0.712804 -5.027790 -0.717761 -0.106717 1.794991 8.050356 4.275368 9.922399 0.625700 2.863800 12.720600 -79.479656 13.581465 15.003047 12.562334 -18.435798 -3.623424 -3.909505 -3.971882 -28.183774 -7.125000 0.000000 0.000000 80.404938 -14.228361 -2.280967 -10.760285 13.652431 -2.370606 0.594111 3.755743 -7.232552 7.125000 0.000000 0.000000 
10.685721 16.914031 32.875929 151.901681 -86.882256 -134.465132 -0.375341 -7.616174 -8.854599 -4.980638 1.003689 0.602201 -8.359017 28.243421 25.916316 1.383700 -7.443100 -21.034900 -6.247268 25.009829 -9.231930 1.658476 -7.469147 12.751906 16.018854 -36.487543 11.501692 -2.175700 9.222800 -26.494700 0.978485 -0.712565 -5.012446 -0.631250 -0.106901 1.856511 8.044915 4.291668 9.904911 0.614600 2.872400 12.686100 -79.101403 13.699597 15.884775 12.569100 -18.529449 -3.650569 -4.031859 -3.948336 -28.501260 -7.125000 0.000000 0.000000 80.586445 -14.375203 -0.294134 -10.831034 13.781261 -2.458069 0.608783 4.031128 -8.756166 7.125000 0.000000 0.000000 
10.682571 16.913215 32.874412 153.734421 -86.824741 -136.374762 -0.368382 -7.497831 -8.773623 -4.968146 0.994010 0.647792 -8.358559 28.202233 25.880787 1.375000 -7.420500 -20.967300 -6.182801 24.901146 -9.283180 1.669329 -7.497567 12.778892 15.882967 -36.342897 11.754094 -2.195700 9.262400 -26.619700 0.979960 -0.716073 -4.995206 -0.547577 -0.109445 1.931106 8.030553 4.318079 9.889496 0.599300 2.883800 12.650000 -78.632614 13.786355 16.918870 12.543768 -18.588517 -3.663846 -4.081253 -3.943094 -29.119248 -7.125000 0.000000 0.000000 80.681595 -14.461364 1.276328 -10.904795 13.919692 -2.555678 0.637750 4.303578 -10.650897 7.125000 0.000000 0.000000 
10.679537 16.912281 32.873829 156.035420 -86.794980 -138.764956 -0.324722 -7.381438 -8.687965 -4.948964 0.983375 0.695097 -8.358901 28.172708 25.867971 1.374700 -7.419800 -20.965300 -6.083290 24.764572 -9.322164 1.693296 -7.510732 12.773713 15.732811 -36.184450 12.039858 -2.215800 9.301800 -26.744100 0.983830 -0.718780 -4.976070 -0.473809 -0.112199 2.012188 8.009062 4.349782 9.874822 0.580900 2.896600 12.611800 -78.080468 13.854037 18.134680 12.509141 -18.641438 -3.674906 -4.061324 -3.949869 -29.981556 -7.125000 0.000000 0.000000 80.706852 -14.490862 2.407342 -10.980693 14.062023 -2.652454 0.668868 4.538249 -12.857624 7.125000 0.000000 0.000000 
10.676737 16.911231 32.874179 158.841767 -86.789589 -141.668677 -0.243502 -7.265852 -8.600722 -4.922822 0.971305 0.743997 -8.360043 28.151857 25.873431 1.376500 -7.424500 -20.979200 -5.950538 24.603739 -9.351678 1.729762 -7.510061 12.736707 15.570989 -36.017217 12.357100 -2.237100 9.343400 -26.875400 0.992306 -0.727694 -4.956657 -0.407348 -0.118391 2.088261 7.978348 4.398380 9.858484 0.559000 2.914800 12.565500 -77.489850 13.900523 19.424572 12.467852 -18.685725 -3.683143 -3.982353 -3.952304 -30.918893 -7.125000 0.000000 0.000000 80.657726 -14.488639 3.176357 -11.060387 14.205244 -2.736834 0.701815 4.707178 -15.182449 7.125000 0.000000 0.000000 
10.673936 16.909831 32.874995 162.002585 -86.798351 -144.937018 -0.134342 -7.155828 -8.507949 -4.891754 0.957618 0.794463 -8.360365 28.133251 25.889111 1.375200 -7.421000 -20.968700 -5.790573 24.427333 -9.368258 1.775619 -7.498360 12.677452 15.401999 -35.844077 12.693037 -2.262100 9.391900 -27.029000 1.002278 -0.734740 -4.937118 -0.351561 -0.124581 2.159329 7.944119 4.449243 9.843643 0.539900 2.932300 12.519600 -76.863285 13.925495 20.785860 12.423178 -18.723961 -3.690071 -3.854911 -3.950126 -31.852477 -7.125000 0.000000 0.000000 80.558400 -14.468854 3.616682 -11.131086 14.330493 -2.798128 0.737878 4.802693 -17.270955 7.125000 0.000000 0.000000 
10.671136 16.908081 32.875812 165.355174 -86.810012 -148.406795 -0.007798 -7.051521 -8.410391 -4.857631 0.943096 0.845664 -8.360749 28.119581 25.912958 1.374300 -7.418700 -20.962000 -5.612695 24.240371 -9.375528 1.827005 -7.479792 12.605955 15.228426 -35.667086 13.041247 -2.290400 9.446400 -27.202100 1.011151 -0.737476 -4.917929 -0.308652 -0.129068 2.216836 7.904598 4.502994 9.826071 0.517100 2.951000 12.467900 -76.181523 13.970984 22.343293 12.405228 -18.803727 -3.714383 -3.679160 -3.962395 -32.888559 -7.125000 0.000000 0.000000 80.421396 -14.446426 3.822141 -11.175705 14.419056 -2.832208 0.773614 4.836880 -18.823900 7.125000 0.000000 0.000000 
10.668685 16.905747 32.875812 168.646436 -86.807388 -151.828827 0.119145 -6.950574 -8.304993 -4.823273 0.928796 0.897865 -8.361586 28.109944 25.937892 1.375800 -7.422500 -20.973300 -5.429665 24.056832 -9.372936 1.878666 -7.459580 12.535314 15.055589 -35.491951 13.391008 -2.323700 9.510100 -27.404500 1.015940 -0.728059 -4.898018 -0.277602 -0.128415 2.272389 7.865655 4.545645 9.809574 0.497300 2.965000 12.420800 -75.447934 14.007381 24.037990 12.409054 -18.913869 -3.752888 -3.465007 -3.986608 -34.009570 -7.125000 0.000000 0.000000 80.266003 -14.418768 3.865593 -11.183625 14.457796 -2.836501 0.824843 4.815033 -19.640899 7.125000 0.000000 0.000000 
10.666585 16.903063 32.874645 171.718224 -86.785249 -155.039776 0.238651 -6.852010 -8.194384 -4.790131 0.915073 0.950368 -8.362537 28.100710 25.958194 1.379500 -7.432100 -21.001900 -5.248834 23.881950 -9.366186 1.927379 -7.443167 12.478615 14.882784 -35.312856 13.732002 -2.362800 9.584000 -27.639800 1.017520 -0.711713 -4.877930 -0.253240 -0.125069 2.325706 7.834466 4.573848 9.795930 0.478900 2.975000 12.377700 -74.685875 14.015971 25.731954 12.424377 -19.037215 -3.799961 -3.215325 -4.015074 -35.137216 -7.125000 0.000000 0.000000 80.091459 -14.384943 3.841728 -11.153842 14.445938 -2.814170 0.889798 4.747691 -19.731388 7.125000 0.000000 0.000000 
10.664952 16.899913 32.871962 174.403471 -86.737398 -157.866231 0.341030 -6.750730 -8.081365 -4.759696 0.902355 1.003011 -8.363985 28.090478 25.970217 1.384700 -7.445500 -21.042200 -5.079883 23.724463 -9.362124 1.970603 -7.435517 12.447303 14.707560 -35.118475 14.049707 -2.401500 9.656600 -27.871600 1.014767 -0.688150 -4.857788 -0.228272 -0.118140 2.377150 7.814272 4.588007 9.784926 0.462900 2.982100 12.336000 -73.874235 14.030031 27.530389 12.474565 -19.212980 -3.871746 -2.926247 -4.061297 -36.382920 -7.125000 0.000000 0.000000 79.896268 -14.344444 3.826059 -11.095339 14.397989 -2.774322 0.961245 4.650459 -19.260863 7.125000 0.000000 0.000000 
10.663668 16.896762 32.867994 176.549789 -86.660051 -160.152956 0.416900 -6.642249 -7.969054 -4.733511 0.890864 1.055553 -8.365213 28.075033 25.969264 1.390500 -7.460500 -21.087200 -4.933978 23.583109 -9.369751 2.005393 -7.439714 12.446908 14.526873 -34.903512 14.346983 -2.437400 9.723200 -28.084900 1.008268 -0.660497 -4.838202 -0.204928 -0.109320 2.428209 7.806157 4.588246 9.776990 0.446000 2.987200 12.296300 -73.043463 14.012197 29.236738 12.522974 -19.385923 -3.947005 -2.610242 -4.104090 -37.547518 -7.125000 0.000000 0.000000 79.679817 -14.295675 3.880139 -11.021379 14.331396 -2.726456 1.035406 4.539099 -18.443293 7.125000 0.000000 0.000000 
10.662851 16.893612 32.862860 178.001674 -86.551996 -161.736777 0.455097 -6.524942 -7.859269 -4.713732 0.880379 1.107694 -8.365023 28.046675 25.947178 1.388500 -7.455500 -21.072100 -4.823280 23.446901 -9.399289 2.028483 -7.457546 12.479026 14.337503 -34.667931 14.639848 -2.474600 9.791600 -28.304500 0.997511 -0.628203 -4.820114 -0.177385 -0.098162 2.477228 7.812753 4.576692 9.773374 0.433900 2.990300 12.259700 -72.195556 13.974698 30.885509 12.565489 -19.552637 -4.023463 -2.282146 -4.140073 -38.599238 -7.125000 0.000000 0.000000 79.430670 -14.239326 4.047747 -10.939717 14.258086 -2.677080 1.107634 4.424701 -17.451331 7.125000 0.000000 0.000000 
